:SAMPLES-PER-SECOND 30
:FRAME-RANGE 1-1770
:FULLY-SPECIFIED
:DEGREES
1051
root  15.0576 37.3294 -25.023 -0.91037 -17.6482 -1.86934
RightUpLeg  -28.2547 -6.37177 2.34797
RightLeg  14.3299 -13.5901 -3.93798
RightFoot  -12.9241 0.0460807 9.68117
RightToes  -1.33073e-015 0 -3.6325e-017
Spine  3.98986 -3.00187 -11.7017
Spine1  -1.28888 -3.7485 4.05355
HEad  1.76743 -20.2853 10.903
LeftShoulder1  0.648615 -5.43107 0.892552
LeftArm  -70.6134 -33.0141 2.60009
LeftForeArm  47.5013 -68.1706 -23.2054
LeftHand  0.212733 7.20664 14.7373
RightShoulder  0.357787 1.04096 -0.406878
RightArm  -77.2527 20.2083 -6.15401
RightForeArm  65.4486 54.337 10.4684
RightHand  0.091767 -8.72832 -4.60513
LeftUpLeg  -1.92296 1.88175 3.13769
LeftLeg  35.9598 -3.53629 -2.36644
LeftFoot  -30.6559 0.244846 0.352923
LeftToes  1.09107e-011 -1.16422e-010 2.98337e-011
1052
root  15.6301 37.4594 -26.3138 -1.2603 -16.2874 -1.84436
RightUpLeg  -28.3101 -4.56518 0.820319
RightLeg  15.8185 -14.781 -4.85757
RightFoot  -12.2806 -0.0051143 9.55099
RightToes  -1.33073e-015 0 -3.6325e-017
Spine  5.25654 -2.57114 -10.9297
Spine1  -1.56366 -3.12995 2.60685
HEad  3.05526 -21.1245 9.09976
LeftShoulder1  0.890341 -3.64064 -5.22832
LeftArm  -66.2281 -25.3601 0.483203
LeftForeArm  45.8538 -69.2755 -25.1731
LeftHand  0.215162 6.94055 17.1199
RightShoulder  0.386735 0.052629 3.23376
RightArm  -78.0655 10.5985 0.197062
RightForeArm  63.8471 59.4589 13.2913
RightHand  0.105262 -9.2011 -4.51489
LeftUpLeg  -5.02571 2.13126 3.07787
LeftLeg  37.4812 -4.63659 -3.41635
LeftFoot  -28.9567 0.350382 1.13581
LeftToes  1.09107e-011 -1.16422e-010 2.98337e-011
1053
root  16.1373 37.7093 -27.4178 -1.63863 -15.4231 -1.47339
RightUpLeg  -28.1253 -1.16098 -1.50133
RightLeg  20.3886 -13.4752 -5.67319
RightFoot  -12.8037 0.032693 9.36793
RightToes  -1.33073e-015 0 -3.6325e-017
Spine  5.49461 -2.27664 -10.5839
Spine1  -1.16127 -2.60831 1.02412
HEad  4.79421 -21.3903 7.45861
LeftShoulder1  0.835815 -1.48441 -10.4144
LeftArm  -58.987 -17.1519 -2.06408
LeftForeArm  39.0162 -64.0409 -19.3852
LeftHand  0.124365 6.32331 17.0421
RightShoulder  0.466154 -0.357189 8.05516
RightArm  -77.9092 3.14825 5.05634
RightForeArm  61.9116 58.0298 12.5854
RightHand  0.206276 -9.30101 -7.26887
LeftUpLeg  -6.73917 1.95292 2.34231
LeftLeg  36.8317 -5.0087 -3.62706
LeftFoot  -26.7463 0.387788 1.67736
LeftToes  1.09107e-011 -1.16422e-010 2.98337e-011
1054
root  16.5987 37.9767 -28.4143 -1.73918 -14.631 -0.753967
RightUpLeg  -28.1456 1.54746 -3.38896
RightLeg  27.459 -11.9556 -6.87715
RightFoot  -13.6629 0.0957221 9.29145
RightToes  -1.33073e-015 0 -3.6325e-017
Spine  5.56308 -2.01151 -10.8535
Spine1  -1.40541 -2.2097 -0.123354
HEad  6.60768 -21.788 6.60983
LeftShoulder1  0.508806 0.83899 -13.9228
LeftArm  -47.8033 -10.8682 -5.27974
LeftForeArm  32.7758 -52.2012 -11.8523
LeftHand  0.0141822 5.5836 16.017
RightShoulder  0.471477 -0.836142 11.6594
RightArm  -76.0802 -2.12384 10.3491
RightForeArm  60.1948 50.0352 8.98165
RightHand  0.245519 -8.45986 -10.4243
LeftUpLeg  -8.19444 0.950432 1.03935
LeftLeg  35.2983 -4.75541 -3.22271
LeftFoot  -24.4638 0.308313 1.40227
LeftToes  1.09107e-011 -1.16422e-010 2.98337e-011
1055
root  17.0501 38.2041 -29.3769 -1.65097 -14.1867 -0.204926
RightUpLeg  -27.8983 2.69842 -4.03692
RightLeg  36.0704 -10.5736 -8.40938
RightFoot  -14.6048 0.161231 9.12795
RightToes  -1.33073e-015 0 -3.6325e-017
Spine  5.24858 -1.55976 -10.6791
Spine1  -1.24407 -1.63919 -1.22991
HEad  7.7959 -21.9107 6.00975
LeftShoulder1  0.248548 2.17142 -15.3431
LeftArm  -31.7138 -5.17843 -9.6786
LeftForeArm  27.643 -40.3113 -7.72051
LeftHand  -0.08058 4.80726 13.4317
RightShoulder  0.513875 -0.836397 13.5848
RightArm  -72.8998 -6.26097 15.5162
RightForeArm  61.3319 36.9596 4.96146
RightHand  0.078552 -6.40367 -11.5045
LeftUpLeg  -9.60839 0.35569 0.00766056
LeftLeg  33.7509 -4.56991 -2.89528
LeftFoot  -22.4168 0.242534 1.11305
LeftToes  1.09107e-011 -1.16422e-010 2.98337e-011
1056
root  17.4856 38.308 -30.2962 -1.6653 -14.2514 0.566391
RightUpLeg  -26.9928 2.54541 -3.76883
RightLeg  45.3923 -9.14303 -10.0795
RightFoot  -16.0759 0.214511 7.81908
RightToes  -1.33073e-015 0 -3.6325e-017
Spine  4.11722 -1.12281 -10.4774
Spine1  0.171415 -0.947736 -2.99107
HEad  7.79171 -21.1751 5.98643
LeftShoulder1  0.24784 2.26552 -17.4317
LeftArm  -12.8125 0.50443 -12.2508
LeftForeArm  16.115 -32.6235 -6.28969
LeftHand  -0.242826 3.10731 11.9152
RightShoulder  0.669948 -0.468641 16.7621
RightArm  -64.1258 -7.60474 18.0119
RightForeArm  65.2255 24.5822 2.11044
RightHand  -0.0318051 -5.24603 -10.0845
LeftUpLeg  -11.1867 0.408962 -1.12235
LeftLeg  32.9618 -4.58718 -2.81144
LeftFoot  -20.7655 0.174041 0.599405
LeftToes  1.09107e-011 -1.16422e-010 2.98337e-011
1057
root  17.9518 38.3392 -31.2059 -1.62402 -14.4238 1.4917
RightUpLeg  -25.1266 1.21484 -3.36214
RightLeg  53.7544 -7.10455 -10.6522
RightFoot  -17.2593 0.251235 7.11889
RightToes  -1.33073e-015 0 -3.6325e-017
Spine  3.16986 -0.825827 -11.2016
Spine1  1.22765 -0.712427 -3.35864
HEad  7.37879 -19.8166 5.92041
LeftShoulder1  0.240431 2.38104 -19.7859
LeftArm  4.30004 6.4261 -14.8764
LeftForeArm  15.7514 -28.5806 -5.32682
LeftHand  -0.180142 3.67324 11.4427
RightShoulder  0.769434 -0.216812 18.2188
RightArm  -42.1862 -5.5203 22.3749
RightForeArm  59.7882 12.3367 -0.650977
RightHand  -0.0871827 -4.55762 -9.80489
LeftUpLeg  -12.8895 0.398532 -2.35605
LeftLeg  32.4401 -4.63297 -2.77989
LeftFoot  -20.268 0.0263655 -1.21977
LeftToes  1.09107e-011 -1.16422e-010 2.98337e-011
1058
root  18.4419 38.3737 -32.1117 -1.36063 -14.7782 2.48239
RightUpLeg  -22.171 -0.64083 -2.96923
RightLeg  59.7166 -5.6811 -10.8679
RightFoot  -18.1896 0.272271 6.60699
RightToes  -1.33073e-015 0 -3.6325e-017
Spine  2.03521 -0.474491 -11.4473
Spine1  2.03874 -0.332093 -3.86415
HEad  7.24088 -18.7941 5.61107
LeftShoulder1  0.0380765 3.17361 -23.2002
LeftArm  15.2119 10.9003 -16.8417
LeftForeArm  20.9431 -26.3104 -4.53032
LeftHand  -0.110718 4.34069 10.7006
RightShoulder  0.885784 0.133276 19.1822
RightArm  -28.0697 -3.67772 27.8754
RightForeArm  66.6794 5.23431 3.44995
RightHand  -0.0256325 -5.32745 -8.62463
LeftUpLeg  -14.7398 0.566911 -3.69817
LeftLeg  31.6436 -4.50723 -2.60484
LeftFoot  -19.4155 -0.086015 -2.86773
LeftToes  1.09107e-011 -1.16422e-010 2.98337e-011
1059
root  18.9353 38.4074 -33.0025 -0.952911 -15.5901 3.45476
RightUpLeg  -18.3154 -2.13913 -2.56334
RightLeg  62.9088 -5.08277 -11.2233
RightFoot  -18.3546 0.260857 6.28357
RightToes  -1.33073e-015 0 -3.6325e-017
Spine  0.757661 0.367769 -10.1081
Spine1  2.53905 0.940705 -5.77458
HEad  7.97459 -18.884 5.02457
LeftShoulder1  -0.282524 4.2131 -25.0523
LeftArm  24.6261 14.2259 -20.6107
LeftForeArm  19.5316 -24.2759 -4.16601
LeftHand  -0.0753488 4.75327 10.9468
RightShoulder  1.04493 0.523351 20.8759
RightArm  -18.8666 -2.40263 34.0246
RightForeArm  76.5613 2.40884 6.9323
RightHand  -0.00449465 -5.63701 -8.43131
LeftUpLeg  -16.6028 0.982743 -5.05619
LeftLeg  30.4712 -4.01818 -2.16954
LeftFoot  -17.8328 -0.0974277 -3.60189
LeftToes  1.09107e-011 -1.16422e-010 2.98337e-011
1060
root  19.3989 38.5078 -33.8476 -0.340866 -16.6641 3.58299
RightUpLeg  -13.2188 -4.06832 -1.59795
RightLeg  62.2514 -4.97083 -10.6851
RightFoot  -18.3651 0.267934 6.39041
RightToes  -1.33073e-015 0 -3.6325e-017
Spine  -0.765229 1.49977 -7.4826
Spine1  3.17641 2.59361 -7.50851
HEad  8.63324 -19.5189 4.23768
LeftShoulder1  -0.61094 5.1681 -26.8017
LeftArm  29.8443 16.8481 -23.8413
LeftForeArm  18.4721 -22.4813 -4.28166
LeftHand  -0.0897009 4.53083 10.0539
RightShoulder  1.18037 0.834419 22.2094
RightArm  -8.05793 -1.53234 40.6202
RightForeArm  79.6466 3.27987 11.3772
RightHand  0.0755153 -6.63697 -9.38492
LeftUpLeg  -18.2776 1.55949 -5.38133
LeftLeg  29.1923 -3.63706 -1.82508
LeftFoot  -16.2438 -0.102372 -4.66281
LeftToes  1.09107e-011 -1.16422e-010 2.98337e-011
1061
root  19.845 38.4936 -34.6993 0.310455 -17.7427 3.44049
RightUpLeg  -7.77646 -5.80847 -0.572648
RightLeg  59.0912 -5.64513 -10.5408
RightFoot  -18.4389 0.347643 7.61429
RightToes  -1.33073e-015 0 -3.6325e-017
Spine  -1.88428 2.75358 -4.91208
Spine1  3.38316 4.1942 -8.58012
HEad  8.86196 -20.4914 3.46767
LeftShoulder1  -0.953505 6.0937 -28.2291
LeftArm  32.061 18.7677 -26.8174
LeftForeArm  20.1204 -20.5617 -5.3916
LeftHand  -0.0509328 4.99916 10.0505
RightShoulder  1.37279 1.50107 22.2994
RightArm  13.5841 -1.28894 48.4827
RightForeArm  68.339 9.6789 12.6352
RightHand  0.192343 -7.73666 -10.857
LeftUpLeg  -20.3988 1.53963 -5.48496
LeftLeg  28.7511 -2.45122 -1.09065
LeftFoot  -14.8019 -0.0754259 -5.42843
LeftToes  1.09107e-011 -1.16422e-010 2.98337e-011
1062
root  20.244 38.4387 -35.5155 1.01674 -18.4826 3.01039
RightUpLeg  -2.09204 -8.34527 0.27503
RightLeg  53.2855 -7.474 -10.9909
RightFoot  -19.0712 0.369324 7.37419
RightToes  -1.33073e-015 0 -3.6325e-017
Spine  -2.75378 3.8332 -2.54001
Spine1  3.43761 5.46998 -8.68389
HEad  8.4485 -21.3939 2.79563
LeftShoulder1  -1.3737 7.1146 -30.1086
LeftArm  35.2205 19.8934 -28.4084
LeftForeArm  20.5628 -20.1497 -5.80722
LeftHand  -0.0377466 5.15359 9.64969
RightShoulder  1.57454 2.33478 21.6453
RightArm  36.679 -1.73821 55.9748
RightForeArm  50.3398 18.8091 7.10134
RightHand  0.188819 -7.56534 -11.4475
LeftUpLeg  -22.6083 1.69304 -5.26856
LeftLeg  28.6503 -1.80584 -0.711451
LeftFoot  -12.9587 0.00607337 -5.06657
LeftToes  1.09107e-011 -1.16422e-010 2.98337e-011
1063
root  20.5951 38.323 -36.3485 1.59802 -19.4644 2.58391
RightUpLeg  3.49561 -10.6637 0.735606
RightLeg  44.8295 -10.5498 -11.3226
RightFoot  -18.5558 0.328561 7.20147
RightToes  -1.33073e-015 0 -3.6325e-017
Spine  -3.5849 4.99119 0.408058
Spine1  3.86262 7.05721 -9.5794
HEad  7.13769 -22.0938 2.6485
LeftShoulder1  -1.52911 7.47335 -30.7313
LeftArm  36.6662 20.3258 -30.5234
LeftForeArm  22.4912 -19.4818 -6.38571
LeftHand  -0.0235588 5.33405 9.45409
RightShoulder  1.78088 3.11961 21.4589
RightArm  41.4131 -1.56318 61.1141
RightForeArm  45.3079 25.4278 3.10602
RightHand  0.199573 -7.59524 -11.8327
LeftUpLeg  -24.854 2.32878 -4.93395
LeftLeg  28.935 -1.38973 -0.482346
LeftFoot  -11.525 0.0606135 -5.24982
LeftToes  1.09107e-011 -1.16422e-010 2.98337e-011
